Coordinates
version=1
nRows=26
nColumns=24
inDegrees=yes

Units are S.I. units (second, meters, Newtons, ...)
Angles are in degrees.

endheader
time	pelvis_tilt	pelvis_list	pelvis_rotation	pelvis_tx	pelvis_ty	pelvis_tz	hip_flexion_r	hip_adduction_r	hip_rotation_r	knee_angle_r	ankle_angle_r	subtalar_angle_r	mtp_angle_r	hip_flexion_l	hip_adduction_l	hip_rotation_l	knee_angle_l	ankle_angle_l	subtalar_angle_l	mtp_angle_l	lumbar_extension	lumbar_bending	lumbar_rotation
      0.47900000	     -2.61631062	      6.32881697	     -1.47409110	     -0.79583006	      0.99995792	      0.30074970	     21.74149061	     -4.98169685	     -0.78412462	     -1.41576003	      5.37081744	     -3.21748090	      0.33895747	     -8.67911731	     11.67779397	     11.19003171	    -12.22592027	      8.46318650	    -14.47628168	     -0.13262344	     -9.92219562	      1.62284685	     -7.21536782
      0.48316667	     -2.64480302	      6.28752604	     -1.53541184	     -0.79021413	      0.99923378	      0.30121590	     21.68953063	     -4.84268829	     -0.48964678	     -1.33823168	      5.19618780	     -3.09392332	      0.47438317	     -8.83026830	     11.62365340	     10.99809719	    -12.55191394	      8.50380929	    -14.25008119	     -0.25508027	     -9.89532689	      1.63914748	     -6.87966928
      0.48733333	     -2.71061615	      6.24827091	     -1.57084924	     -0.78459084	      0.99847190	      0.30166491	     21.67430809	     -4.71306049	     -0.16861184	     -1.33581862	      4.93267146	     -3.09743354	      0.62617815	     -8.90700869	     11.56655741	     10.77772765	    -12.95643238	      8.64534528	    -13.87321440	     -0.34165371	     -9.78673420	      1.69176302	     -6.75511264
      0.49150000	     -2.73365650	      6.17285823	     -1.61774157	     -0.77893693	      0.99779170	      0.30215013	     21.60699843	     -4.54511864	      0.18734102	     -1.40055763	      4.67257110	     -3.15906014	      0.78514277	     -9.01504531	     11.47256175	     10.53308176	    -13.38931793	      8.76655459	    -13.49745827	     -0.38260375	     -9.74210706	      1.75873886	     -6.61193456
      0.49566667	     -2.77184619	      6.09807044	     -1.65660219	     -0.77330562	      0.99710131	      0.30263398	     21.57994934	     -4.37973422	      0.54561627	     -1.57958201	      4.36439272	     -3.33253111	      0.97585854	     -9.07498638	     11.38094447	     10.27461172	    -13.89002632	      8.90016870	    -13.12192577	     -0.37690618	     -9.69001523	      1.81789729	     -6.45477287
      0.49983333	     -2.77992228	      5.99215239	     -1.71991005	     -0.76761581	      0.99647965	      0.30313994	     21.52389636	     -4.17751476	      0.92191730	     -1.82981497	      4.02016667	     -3.53580487	      1.17043550	     -9.16761229	     11.26094328	      9.99261632	    -14.38265778	      8.99672433	    -12.74673034	     -0.31849959	     -9.65653645	      1.93708234	     -6.29303667
      0.50400000	     -2.79635032	      5.87995331	     -1.79103682	     -0.76191172	      0.99586456	      0.30365610	     21.49464180	     -3.96640606	      1.30757243	     -2.17046080	      3.66362826	     -3.79652548	      1.35462877	     -9.22839329	     11.13864916	      9.69893969	    -14.91829426	      9.04388765	    -12.40364142	     -0.21002849	     -9.61211249	      2.06199318	     -6.12732478
      0.50816667	     -2.82237471	      5.75856424	     -1.86624432	     -0.75619579	      0.99523956	      0.30416816	     21.49467373	     -3.74563406	      1.68444164	     -2.59879141	      3.30863585	     -4.07747422	      1.51894535	     -9.25016670	     11.01111348	      9.38389173	    -15.51149942	      9.07682057	    -12.08277760	     -0.06330617	     -9.54902679	      2.21666860	     -5.96075585
      0.51233333	     -2.83200756	      5.60794095	     -1.94437973	     -0.75045895	      0.99467625	      0.30472580	     21.47527213	     -3.49067943	      2.07199781	     -3.07079165	      2.91422437	     -4.46322082	      1.70305009	     -9.25789760	     10.84801577	      9.02520239	    -16.15864973	      9.11504402	    -11.69623640	      0.16308683	     -9.52920158	      2.36019729	     -5.77146386
      0.51650000	     -2.83033013	      5.43812938	     -2.01166202	     -0.74471728	      0.99413890	      0.30526192	     21.44847785	     -3.22214315	      2.42409561	     -3.59224314	      2.54620536	     -4.85182007	      1.94833652	     -9.24457043	     10.66628226	      8.65510563	    -16.88148041	      9.12325975	    -11.34432807	      0.55000016	     -9.52131522	      2.55087239	     -5.59795430
      0.52066667	     -2.85699122	      5.29957079	     -2.12299426	     -0.73896431	      0.99356656	      0.30583520	     21.50924417	     -2.96830870	      2.79297447	     -4.24859707	      2.18413016	     -5.26299177	      2.11014064	     -9.18773738	     10.52780706	      8.27098559	    -17.60439391	      9.05374278	    -11.01964350	      0.87991152	     -9.44940769	      2.72061193	     -5.40485187
      0.52483333	     -2.86966618	      5.12475818	     -2.21549946	     -0.73321108	      0.99303731	      0.30640913	     21.54422950	     -2.68310921	      3.13284175	     -4.91937502	      1.84888834	     -5.69763777	      2.26958763	     -9.09509000	     10.34430582	      7.84812690	    -18.43095006	      8.98370178	    -10.65847852	      1.29505698	     -9.42017124	      2.90943111	     -5.21975788
      0.52900000	     -2.82949589	      4.93055404	     -2.30347654	     -0.72742326	      0.99261563	      0.30696261	     21.52355901	     -2.38558727	      3.42323332	     -5.61987284	      1.52711784	     -6.15846139	      3.86307158	     -9.04736265	     10.14245999	      7.45002411	    -19.26513427	      8.73490984	    -10.45240442	      6.34280765	     -9.44110062	      3.16584498	     -5.14335051
      0.53316667	     -2.84696355	      4.77040439	     -2.40482044	     -0.72168263	      0.99210272	      0.30752917	     21.61817119	     -2.11486927	      3.68179200	     -6.44043351	      1.32051487	     -6.48512630	      3.86733870	     -8.87703544	      9.97792887	      7.00184178	    -20.21389170	      8.53689340	    -10.15799488	      6.42552663	     -9.40916848	      3.33067437	     -4.88992652
      0.53733333	     -2.83647424	      4.58658917	     -2.50110062	     -0.71593550	      0.99167068	      0.30810992	     21.67255895	     -1.82060371	      3.93262035	     -7.26137030	      1.12516227	     -6.89262930	      3.86265581	     -8.70228654	      9.78280673	      6.54330666	    -21.21926929	      8.30879029	     -9.83231638	      6.60228250	     -9.41145610	      3.54247331	     -4.71882480
      0.54150000	     -2.82845617	      4.39377253	     -2.58605379	     -0.71018390	      0.99124921	      0.30866551	     21.73866514	     -1.52236631	      4.13923586	     -8.12192433	      0.98202025	     -7.29490275	      3.84508084	     -8.48406859	      9.57134436	      6.06738152	    -22.29829282	      8.06770992	     -9.45954317	      6.93554721	     -9.40380532	      3.79146204	     -4.53602987
      0.54566667	     -2.79902740	      4.15986733	     -2.65680259	     -0.70443120	      0.99087836	      0.30924356	     21.75543917	     -1.18616807	      4.32680754	     -8.95006953	      0.92169183	     -7.68233398	      3.79192751	     -8.23474851	      9.29787144	      5.53012848	    -23.48120256	      7.76889788	     -9.05429515	      7.67521033	     -9.43174111	      4.05991891	     -4.35589574
      0.54983333	     -2.78419858	      3.98293589	     -2.76506402	     -0.69872241	      0.99049843	      0.30986357	     21.82952863	     -0.89043776	      4.56203081	     -9.85657181	      0.88395917	     -8.10730246	      3.33408502	     -7.95345870	      9.09399008	      5.01904419	    -24.64567914	      7.23201748	     -8.88480436	     12.59897273	     -9.44633628	      4.26480720	     -4.25640831
      0.55400000	     -2.75544721	      3.80805702	     -2.85268426	     -0.69301102	      0.99015932	      0.31042274	     21.90754931	     -0.61770776	      4.65970291	    -10.82004085	      1.03323577	     -8.22522713	      3.32264510	     -7.64221368	      8.88411998	      4.50751708	    -25.89437257	      6.71104397	     -8.60123908	     12.69105625	     -9.47084398	      4.45710853	     -4.11013186
      0.55816667	     -2.72820905	      3.60048504	     -2.91735621	     -0.68731356	      0.98983691	      0.31097802	     21.96882577	     -0.31550552	      4.73727047	    -11.76446711	      1.18534644	     -8.46863997	      3.28389147	     -7.27981515	      8.61895992	      3.97513284	    -27.23322525	      6.18505139	     -8.21040751	     12.93371810	     -9.50100887	      4.71281867	     -3.95041438
      0.56233333	     -2.68409144	      3.37051896	     -2.98426828	     -0.68161443	      0.98958605	      0.31159949	     21.96479373	      0.01830624	      4.88739795	    -12.62201277	      1.36454995	     -8.82593868	      2.55422848	     -6.90301831	      8.30798031	      3.39804724	    -28.60752545	      5.50824211	     -7.91807346	     16.97938184	     -9.55566784	      4.97264219	     -3.82351386
      0.56650000	     -2.62487378	      3.17351530	     -3.03717830	     -0.67594287	      0.98936397	      0.31213852	     21.98362240	      0.29427608	      4.89032276	    -13.56354849	      1.69895274	     -8.85569691	      2.53775025	     -6.50898011	      8.03103022	      2.86475701	    -30.02849563	      4.75155993	     -7.57434280	     17.08557451	     -9.62616231	      5.20121236	     -3.71342976
      0.57066667	     -2.57328919	      2.95450594	     -3.08716148	     -0.67026639	      0.98917286	      0.31272170	     21.96680035	      0.59822235	      4.93691414	    -14.42427936	      2.05462616	     -8.97956904	      2.51236386	     -6.07609882	      7.71115136	      2.31097647	    -31.49212767	      3.94056389	     -7.27222253	     17.23347384	     -9.68485278	      5.43113057	     -3.61528581
      0.57483333	     -2.53464546	      2.73433362	     -3.11568585	     -0.66462716	      0.98898137	      0.31328106	     21.96321628	      0.89337501	      4.93103231	    -15.28895387	      2.44347323	     -9.07840740	      2.46426554	     -5.59093640	      7.36842206	      1.76483217	    -33.00839929	      3.07570015	     -6.88867935	     17.49083227	     -9.73863209	      5.67991123	     -3.50110357
      0.57900000	     -2.42997373	      2.50048108	     -3.13693056	     -0.65898640	      0.98893931	      0.31385197	     21.85271420	      1.19482944	      4.92520084	    -16.09110806	      2.89822233	     -9.17519446	      1.28368350	     -5.16225394	      6.99445880	      1.22965043	    -34.51016079	      1.98794227	     -6.57268463	     22.74333836	     -9.88145566	      5.94083875	     -3.36686261
      0.58316667	     -2.34499801	      2.27011938	     -3.14109443	     -0.65335434	      0.98891256	      0.31437682	     21.73273384	      1.48098525	      4.89445312	    -16.82497573	      3.34822403	     -9.24407269	      1.28084131	     -4.69164277	      6.62409688	      0.75021270	    -36.04073815	      0.86291940	     -6.34300152	     22.76864984	     -9.98585602	      6.21938699	     -3.31789869
